PathFileType	4	(X/Y/Z)	C:/Users/opensim2020/Desktop/walking_exp_matlab/subject06_walking16_straight_02.trc	
DataRate	CameraRate	NumFrames	NumMarkers	Units	OrigDataRate	OrigDataStartFrame	OrigNumFrames	
100.00	100.00	5	51	mm	100.00	2130	283	
Frame#	Time	LFHD			RFHD			LBHD			RBHD			C7			T10			CLAV			STRN			RBAK			LSHO			LUPA			LELB			LFRM			LWRA			LWRB			LFIN			RSHO			RUPA			RELB			RFRM			RWRA			RWRB			RFIN			LASI			RASI			LPSI			RPSI			LTHI			LKNE			LTIB			LANK			LHEE			LTOE			RTHI			RKNE			RTIB			RANK			RHEE			RTOE			*39			*40			*41			*42			*43			*44			*45			*46			*47			*48			*49			*50			
		X1	Y1	Z1	X2	Y2	Z2	X3	Y3	Z3	X4	Y4	Z4	X5	Y5	Z5	X6	Y6	Z6	X7	Y7	Z7	X8	Y8	Z8	X9	Y9	Z9	X10	Y10	Z10	X11	Y11	Z11	X12	Y12	Z12	X13	Y13	Z13	X14	Y14	Z14	X15	Y15	Z15	X16	Y16	Z16	X17	Y17	Z17	X18	Y18	Z18	X19	Y19	Z19	X20	Y20	Z20	X21	Y21	Z21	X22	Y22	Z22	X23	Y23	Z23	X24	Y24	Z24	X25	Y25	Z25	X26	Y26	Z26	X27	Y27	Z27	X28	Y28	Z28	X29	Y29	Z29	X30	Y30	Z30	X31	Y31	Z31	X32	Y32	Z32	X33	Y33	Z33	X34	Y34	Z34	X35	Y35	Z35	X36	Y36	Z36	X37	Y37	Z37	X38	Y38	Z38	X39	Y39	Z39	X40	Y40	Z40	X41	Y41	Z41	X42	Y42	Z42	X43	Y43	Z43	X44	Y44	Z44	X45	Y45	Z45	X46	Y46	Z46	X47	Y47	Z47	X48	Y48	Z48	X49	Y49	Z49	X50	Y50	Z50	X51	Y51	Z51	

177	1.760	1493.06531	60.76233	1642.14404	1361.38440	61.78243	1628.47168	1494.64111	195.27164	1589.21570	1365.03491	194.96609	1580.89929	1432.59790	199.02798	1431.82935	1421.38123	234.81461	1101.72473	1438.71741	91.73592	1351.96033	1442.88843	55.12142	1177.01465	1341.36304	267.37833	1263.86230	1597.05371	158.87465	1382.44141	1659.80029	205.50336	1184.17908	1662.85596	235.80727	1075.38757	1675.48132	243.88129	923.95715	1624.45215	209.65741	802.29523	1662.79150	270.17694	807.41315	1656.84583	246.66975	719.58624	1275.03516	120.28597	1386.99377	1178.13757	148.13557	1190.66553	1165.38391	135.51399	1069.13562	1155.27063	101.20056	953.76263	1202.89819	25.20098	829.49396	1154.86450	71.67471	819.41327	1163.76477	21.91614	751.77393	1537.99463	50.38800	949.91034	1315.89734	55.36684	943.27667	1515.64172	210.29111	970.36377	1346.46155	207.51616	968.86731	1609.14587	52.01103	641.84442	1581.17456	0.93118	490.14478	1578.03760	-28.90247	236.26836	1540.95447	-70.13760	69.17604	1494.09131	-33.94868	49.99363	1535.43701	-217.84442	59.23288	1276.08252	154.26292	612.32562	1297.00623	179.42186	487.45923	1290.34131	338.42917	266.68173	1326.67639	444.92526	111.01472	1364.95728	497.64209	104.08987	1351.42493	316.13214	34.85271	1433.15271	161.09142	1680.13135																																	 
178	1.770	1494.44788	52.50409	1642.26648	1362.88831	53.65879	1628.58191	1496.45068	186.81961	1589.18726	1366.80127	186.81714	1580.82446	1434.48560	190.72878	1431.81152	1422.71619	225.38089	1101.23083	1440.32800	83.34131	1351.99719	1444.36536	46.27747	1177.08813	1343.64502	259.03101	1263.32727	1598.94189	150.13168	1382.09900	1661.67139	196.43921	1183.62952	1664.67859	226.69147	1074.78467	1677.22656	234.80119	923.36627	1626.00049	200.70503	801.72198	1664.49036	261.22028	806.84088	1658.40186	237.72127	719.03503	1276.53564	112.30202	1386.72083	1179.94470	140.13277	1190.15076	1167.08386	127.33295	1068.61279	1156.95654	93.10768	953.16559	1204.35095	17.36020	828.67712	1156.27185	64.04700	818.77441	1165.07874	13.90904	751.23920	1539.37268	40.49979	950.10773	1317.14697	45.60469	942.94067	1517.02185	200.45625	970.46832	1347.84985	197.55435	968.43213	1610.56995	41.63436	642.58771	1582.65491	-8.78366	490.77979	1579.01489	-34.98288	236.53230	1541.69360	-72.51309	68.51583	1495.16541	-35.88059	50.93344	1534.53772	-219.88290	53.86414	1277.18811	144.83157	611.76978	1297.99097	169.58667	486.89682	1290.87720	332.37582	268.90527	1326.75098	441.85904	115.35487	1365.05127	494.47464	109.89550	1351.58130	316.03799	34.96302	1434.87280	152.92624	1680.12329																																	 
179	1.780	1495.97107	44.07585	1642.70679	1364.35352	45.64694	1629.04138	1498.32690	178.37070	1589.57178	1368.62158	178.65495	1581.07922	1436.23938	182.33333	1432.17688	1423.98999	215.98660	1101.11926	1441.89514	74.91175	1352.48438	1445.90259	37.43739	1177.58240	1345.75317	250.53122	1263.10559	1600.78284	141.34909	1382.04199	1663.56128	187.07950	1183.34460	1666.66736	217.21291	1074.39893	1679.03027	225.30460	922.94183	1627.77991	191.36490	801.48096	1666.30652	251.82466	806.46045	1660.15234	228.37123	718.70856	1277.98352	104.15148	1386.81201	1181.88843	132.12900	1189.93652	1168.84778	119.08611	1068.39478	1158.72522	85.08805	952.81165	1205.63013	9.11528	828.33142	1157.91724	56.33981	818.35638	1166.31396	6.29035	750.88739	1540.83704	30.55920	950.77289	1318.54700	35.64537	942.89880	1518.22632	190.77315	971.20111	1349.03125	187.42842	968.30835	1612.08154	31.12504	644.12213	1584.07898	-18.68882	491.84338	1580.32239	-40.64061	237.31288	1542.33752	-76.00108	68.74830	1496.02966	-37.99537	52.10857	1533.81360	-222.38806	50.97398	1278.49658	134.34764	611.42889	1299.01990	159.02315	486.41559	1291.52234	325.59622	271.45374	1326.79248	438.21249	120.11234	1365.13391	490.72781	116.29585	1351.88977	315.69772	35.05489	1436.62317	144.64467	1680.47974																																	 
180	1.790	1497.49426	35.66616	1643.36182	1365.88721	37.52984	1629.67004	1500.12061	169.95757	1590.22583	1370.46704	170.51871	1581.79944	1438.00000	174.07047	1432.71240	1425.16870	206.58301	1101.37720	1443.46960	66.49591	1353.21118	1447.46277	28.42003	1178.38171	1347.75146	241.98949	1263.23145	1602.54358	132.53961	1382.31067	1665.43848	177.50797	1183.35242	1668.68738	207.39529	1074.31445	1681.08447	215.29669	922.91541	1629.44556	181.81297	801.30469	1668.42883	241.92227	806.38141	1662.03223	218.60968	718.63092	1279.47119	96.00453	1387.27075	1183.94470	124.15225	1190.08044	1170.87769	110.70873	1068.55493	1160.61841	77.14072	952.77802	1207.04895	1.68103	827.99683	1159.61597	48.98867	818.24023	1167.44446	-1.01375	750.76862	1542.42493	20.61335	951.98352	1320.18811	25.49826	943.19177	1519.24329	181.10001	972.22278	1350.15552	177.31989	968.48883	1613.18286	20.82856	646.05688	1585.27344	-28.27033	493.10596	1581.64355	-46.80489	238.14630	1542.39832	-78.02627	68.76402	1496.69397	-39.90409	52.83482	1533.62683	-224.32997	49.09618	1279.79980	123.53049	611.33209	1300.00110	147.77336	486.23590	1292.15198	318.14557	274.30640	1326.77417	434.00018	125.48408	1365.24219	486.23401	123.35107	1352.11462	315.35678	35.18834	1438.31262	136.39452	1681.14551																																	 
181	1.800	1499.03857	27.26581	1644.28870	1367.43140	29.37984	1630.59961	1501.98047	161.53700	1591.17749	1372.70813	162.37196	1583.01184	1439.70581	165.86436	1433.55627	1426.32544	197.26135	1102.03284	1445.01477	58.11771	1354.23389	1449.06848	19.37524	1179.56055	1349.65442	233.33556	1263.69043	1604.22766	123.76772	1382.98438	1667.30176	167.67249	1183.70618	1670.72229	197.15771	1074.56409	1683.16467	204.85625	923.13495	1631.10547	171.76408	801.54047	1670.77686	231.48425	806.57837	1664.22571	208.25621	718.91638	1280.96826	87.76926	1388.20276	1186.08472	116.02324	1190.65637	1173.10730	102.29574	1069.14685	1162.63318	69.21233	953.17786	1208.39941	-6.03260	828.11261	1161.48633	41.52560	818.54352	1168.65662	-7.94293	750.86346	1544.10278	10.76468	953.64520	1322.32043	15.67091	943.72968	1520.08215	171.50436	973.46191	1351.25720	167.22012	968.96765	1614.19580	11.05688	647.90533	1586.05457	-37.07206	494.40729	1582.72559	-53.40969	238.59161	1541.98718	-79.34663	68.73170	1496.60852	-40.37080	53.47548	1533.42371	-225.17101	47.16653	1281.22156	112.09747	611.36047	1300.99341	135.54637	486.23013	1292.91028	309.94836	277.67294	1327.18054	428.75500	131.21487	1366.03198	480.86328	131.00500	1352.49524	314.58246	35.29236	1440.11523	128.09846	1682.08093																																	 
